# xmcd
#
# Track frame offsets:
#	150
#	18462
#	35461
#	56724
#	75993
#
# Disc length: 1267 seconds
#
# Revision: 1
# Processed by: cddbd v1.5.2PL0 Copyright (c) Steve Scherf et al.
# Submitted via: dBpowerAMP V4.0
#
DISCID=3204f105
DTITLE=Jonathan Harding - The Suitcase Album
DYEAR=2007
DGENRE=Pop
TTITLE0=Baby Steps
TTITLE1=Head in Vice
TTITLE2=The Tree Song
TTITLE3=Adoring You
TTITLE4=Here we are (re-mixed)
EXTD=
EXTT0=
EXTT1=
EXTT2=
EXTT3=
EXTT4=
PLAYORDER=
